# xmcd CD database file generated by Grip 3.2.0
# 
# Track frame offsets:
#       150
#       18552
#       43047
#       60247
#       92100
#       121060
#       153295
#       174657
#       193615
#       225535
#       255062
# 
# Disc length: 4017 seconds
# 
# Revision: 1
# Processed by: cddbd v1.5.2PL0 Copyright (c) Steve Scherf et al.
# Submitted via: Grip 3.2.0
# 
DISCID=7b0faf0b
DTITLE=Lenny Mac Dowell - Flute Power
DYEAR=1900
DGENRE=Jazz
TTITLE0=Locomotive Breath
TTITLE1=Flute Power
TTITLE2=Talking Flute
TTITLE3=Straight On
TTITLE4=Velvet Things
TTITLE5=Rondo
TTITLE6=Dawn
TTITLE7=Friday on My Mind
TTITLE8=Thai-Stick
TTITLE9=Turkish Bath
TTITLE10=Sea Bed
EXTD=
EXTT0=
EXTT1=
EXTT2=
EXTT3=
EXTT4=
EXTT5=
EXTT6=
EXTT7=
EXTT8=
EXTT9=
EXTT10=
PLAYORDER=
